<?xml version="1.0" standalone="no"?><!DOCTYPE svg PUBLIC "-//W3C//DTD SVG 1.1//EN" "http://www.w3.org/Graphics/SVG/1.1/DTD/svg11.dtd"><svg t="1516846747104" class="icon" style="" viewBox="0 0 1024 1024" version="1.1" xmlns="http://www.w3.org/2000/svg" p-id="1036" xmlns:xlink="http://www.w3.org/1999/xlink" width="200" height="200"><defs><style type="text/css"></style></defs><path d="M913.61596 375.666962l-12.890588 12.890588-34.342156 34.340109-4.220115 4.222161 1.321088 5.821589c6.043646 26.611078 9.127891 53.890374 9.127891 81.529875 0 202.333218-164.026774 366.352829-366.374318 366.352829s-366.374318-164.018587-366.374318-366.352829c0-202.324008 164.040077-366.352829 366.374318-366.352829 27.689642 0 54.969962 3.072989 81.529875 9.105379l5.821589 1.323135 4.222161-4.222161 34.363645-34.363645 12.893658-12.895705-17.499559-5.129834c-39.119973-11.469216-79.840396-17.355273-121.331369-17.355273-237.434667 0-429.889911 192.456267-429.889911 429.889911 0 237.434667 192.455243 429.889911 429.889911 429.889911 237.419318 0 429.889911-192.462406 429.889911-429.889911 0-41.466414-5.89936-82.210373-17.376763-121.31295L913.61596 375.666962z" p-id="1037" fill="#bfbfbf"></path><path d="M506.236739 336.702532c12.619412 0 25.012673 1.306762 37.090756 3.886517l15.307637 3.26844-2.357697-15.47546-6.661723-43.715641-1.209548-7.943926-7.955182-1.1328c-11.362792-1.619894-22.784936-2.446725-34.214243-2.446725-133.258003 0-241.305835 108.064204-241.305835 241.328347 0 133.261073 108.044762 241.305835 241.305835 241.305835s241.305835-108.044762 241.305835-241.305835c0-11.498892-0.815575-22.926152-2.425236-34.214243l-1.1328-7.953136-7.942903-1.211595-43.695175-6.6607-15.446807-2.355651 3.236718 15.287171c2.577708 12.169157 3.889587 24.565489 3.889587 37.108153 0 98.18316-79.594803 177.790242-177.768753 177.790242-98.188276 0-177.768753-79.599919-177.768753-177.790242C328.470033 416.288125 408.0413 336.702532 506.236739 336.702532z" p-id="1038" fill="#bfbfbf"></path><path d="M504.82867 567.106062c0.467651 0.01228 0.942465 0.088004 1.409093 0.088004 29.102828 0 52.722782-23.627117 52.722782-52.722782 0-0.494257-0.094144-1.001817-0.109494-1.49812l98.856495-98.856495 117.77845 17.944697 5.408173 0.824785 3.868097-3.868097 148.19725-148.175761 15.290241-15.289218-21.404496-3.064802-146.137335-20.927635L758.204401 93.768617l-3.217275-21.13639-15.121396 15.118326-148.175761 148.154271-3.868097 3.868097 0.823761 5.408173 17.946744 117.77845-98.889241 98.887194c-0.490164-0.014326-0.978281-0.097214-1.466398-0.097214-29.111015 0-52.722782 23.612791-52.722782 52.722782 0 0.558725 0.103354 1.12666 0.12382 1.685385l1.056052 5.563716 0.911766 5.297656c4.702092 18.930141 19.311835 33.518395 38.260395 38.172391M741.90211 294.104341l87.25425 11.901051-68.595284 63.550385-98.779747-11.536754-14.400988-100.821243 64.506153-61.444421 14.616906 83.643002 2.257413 12.914124 0 0" p-id="1039" fill="#bfbfbf"></path></svg>